# xmcd
#
# Track frame offsets: 
#        183
#        13293
#        29743
#        41880
#        59905
#        78873
#        92948
#        104955
#        120288
#        131950
#        149355
#        163933
#        184263
#        196250
#        211195
#        226093
#
# Disc length: 3289 seconds
#
# Revision: 0
# Processed by: cddbd v1.5.2PL0 Copyright (c) Steve Scherf et al.
# Submitted via: ExactAudioCopy v0.95a3
#
DISCID=f50cd710
DTITLE=John Brack - Das Komponisten Portrait
DYEAR=1993
DGENRE=Country
TTITLE0=Last chance for a lonely heart
TTITLE1=I wont stand still
TTITLE2=There goes a fool
TTITLE3=The other side
TTITLE4=I fall to pieces
TTITLE5=Precious tools
TTITLE6=Rock n roll beardigung
TTITLE7=Cause you still love me
TTITLE8=i joined the party of the lord
TTITLE9=There will be no chansing rainbows anymore
TTITLE10=Wrong horse
TTITLE11=Losing you
TTITLE12=Keep your hands away
TTITLE13=Roll on
TTITLE14=I`m a girl in a country band
TTITLE15=Flames of love
EXTD=
EXTT0=
EXTT1=
EXTT2=
EXTT3=
EXTT4=
EXTT5=
EXTT6=
EXTT7=
EXTT8=
EXTT9=
EXTT10=
EXTT11=
EXTT12=
EXTT13=
EXTT14=
EXTT15=
PLAYORDER=
